<svg xmlns="http://www.w3.org/2000/svg" viewBox="0 0 600 600">
<rect width="600" height="600" rx="96" fill="#030F29"/>
<g transform="translate(300,300) scale(0.58) translate(-597,-525)">
  <g transform="rotate(-22 657.0 502.0)"><ellipse cx="657.0" cy="502.0" rx="432" ry="196" fill="none" stroke="url(#orbit)" stroke-width="7" stroke-linecap="round" opacity="0.95"/></g>
  <path d="M 500 402 C 476 374 344 374 334 416 C 324 458 396 480.0 409.0 502.0 C 476 526.0 512 540 476 582 C 464 620 358 626 310 606 " fill="none" stroke="#FFFFFF" stroke-width="70" stroke-linecap="butt" stroke-linejoin="round"/>
  <g fill="#FFFFFF"><path d="M 534 372 L 732 372 L 732 444 L 636 568 L 732 568 L 732 632 L 534 632 L 534 560 L 630 436 L 534 436 Z"/><path d="M 762 372 L 830 372 L 830 568 L 1014 568 L 954 632 L 762 632 Z"/></g>
  <circle cx="937.9" cy="264.3" r="33" fill="url(#node)"/>
  <path d="M 657.0 678 L 694.0 766 L 675.0 766 L 657.0 710.3 L 639.0 766 L 620.0 766 Z" fill="url(#orbit)" opacity="0.96"/>
</g>
</svg>